<?xml version="1.0" standalone="no"?>
<!DOCTYPE svg PUBLIC "-//W3C//DTD SVG 20010904//EN"
 "http://www.w3.org/TR/2001/REC-SVG-20010904/DTD/svg10.dtd">
<svg version="1.0" xmlns="http://www.w3.org/2000/svg"
 width="1818.000000pt" height="1818.000000pt" viewBox="0 0 1818.000000 1818.000000"
 preserveAspectRatio="xMidYMid meet">
<metadata>
Created by potrace 1.14, written by Peter Selinger 2001-2017
</metadata>
<g transform="translate(0.000000,1818.000000) scale(0.100000,-0.100000)"
fill="#000000" stroke="none">
<path d="M7739 13946 c-2 -2 -4 -316 -3 -698 1 -534 4 -702 14 -733 18 -57 61
-135 71 -129 5 3 9 -3 9 -12 0 -32 194 -195 222 -186 4 1 8 -3 8 -8 0 -14 216
-114 270 -125 8 -2 16 -4 18 -5 1 -2 5 -3 10 -4 4 -1 34 -10 67 -20 33 -10 69
-19 80 -21 11 -1 27 -5 35 -8 8 -3 44 -10 80 -16 36 -6 81 -14 100 -17 36 -6
50 -8 165 -20 39 -3 273 -8 520 -9 248 -2 477 -6 510 -9 116 -12 160 -17 185
-21 42 -7 88 -15 122 -21 173 -29 421 -136 513 -219 85 -78 133 -125 128 -125
-4 0 3 -10 14 -22 25 -27 92 -140 90 -151 -1 -5 6 -13 16 -18 9 -6 15 -14 12
-19 -3 -4 2 -25 11 -46 9 -22 20 -52 25 -69 29 -106 40 -156 45 -200 3 -27 8
-54 11 -59 3 -4 7 -83 8 -175 3 -150 -3 -239 -19 -326 -4 -16 -9 -46 -12 -65
-3 -19 -10 -43 -15 -52 -5 -9 -8 -21 -8 -25 1 -4 -1 -17 -5 -28 -5 -11 -17
-45 -29 -75 -47 -127 -152 -303 -229 -384 -20 -22 -35 -43 -32 -48 3 -5 1 -7
-4 -6 -5 2 -20 -8 -34 -22 -48 -50 -129 -120 -139 -120 -5 0 -12 -7 -15 -15
-4 -8 -10 -15 -15 -15 -10 0 -103 -62 -107 -72 -2 -5 -10 -8 -18 -8 -8 0 -14
-5 -14 -11 0 -5 -4 -8 -9 -4 -5 3 -15 -1 -23 -8 -23 -22 -187 -95 -283 -126
-38 -12 -77 -25 -85 -28 -8 -4 -18 -6 -21 -5 -4 1 -21 -3 -38 -8 -34 -9 -122
-23 -158 -23 -13 -1 -20 -4 -15 -8 10 -11 178 -22 327 -23 149 0 320 11 410
27 17 3 47 8 67 11 34 5 91 18 141 31 9 3 27 7 39 10 34 7 150 45 183 60 17 7
42 17 58 20 15 4 27 12 27 18 0 6 3 8 6 4 8 -8 133 59 239 128 131 86 289 248
379 390 45 70 118 217 111 223 -3 3 1 12 9 21 12 14 49 111 52 136 0 6 6 23
12 38 7 15 15 40 18 55 3 15 13 47 20 71 8 24 12 46 9 49 -2 3 -1 10 4 16 5 6
11 29 15 51 3 22 8 51 10 65 3 14 8 39 11 55 30 158 28 505 -4 663 -4 23 -7
42 -4 42 2 0 -3 13 -11 29 -9 16 -13 31 -10 33 18 19 -145 405 -184 436 -9 6
-13 12 -9 12 7 0 -20 49 -33 60 -3 3 -17 21 -30 40 -14 19 -32 44 -40 55 -29
38 -196 202 -245 241 -27 21 -52 41 -55 44 -35 37 -351 212 -400 222 -8 2 -17
6 -20 9 -6 7 -210 78 -225 79 -3 0 -21 6 -40 15 -25 10 -34 11 -28 2 5 -8 2
-8 -9 1 -9 7 -27 15 -40 16 -13 2 -30 6 -38 9 -8 4 -28 9 -45 12 -36 6 -130
23 -165 30 -14 3 -44 7 -67 10 -23 3 -58 7 -77 10 -109 15 -174 24 -236 30
-107 10 -167 16 -200 20 -19 3 -66 7 -105 10 -38 3 -90 8 -115 10 -25 3 -74 7
-110 10 -36 3 -87 8 -115 11 -27 3 -68 7 -90 9 -129 11 -220 24 -370 49 -172
29 -377 109 -506 197 -78 53 -177 146 -242 228 -28 36 -55 68 -60 69 -4 2 -5
8 -1 13 3 5 0 9 -5 9 -6 0 -11 6 -11 14 0 8 -3 16 -7 18 -10 4 -61 88 -91 148
-13 25 -27 52 -32 60 -12 19 -63 131 -66 145 -5 23 -31 75 -35 71z"/>
<path d="M7973 11263 c-5 -1 -80 -4 -168 -7 -88 -3 -173 -8 -189 -10 -124 -19
-332 -84 -418 -130 -135 -72 -227 -132 -294 -191 -59 -52 -104 -98 -104 -106
0 -6 -4 -7 -10 -4 -5 3 -10 3 -10 -2 0 -4 -15 -24 -33 -44 -66 -74 -86 -102
-80 -113 3 -6 3 -8 -2 -4 -4 4 -24 -16 -43 -45 -40 -60 -154 -289 -147 -296 3
-2 1 -9 -4 -15 -6 -7 -12 -23 -15 -36 -2 -14 -9 -38 -15 -55 -6 -16 -20 -75
-30 -130 -18 -93 -20 -143 -17 -735 1 -349 5 -646 8 -660 3 -14 10 -47 14 -75
4 -27 9 -54 10 -60 2 -5 5 -19 7 -30 29 -124 40 -162 67 -240 30 -84 108 -264
120 -275 3 -3 16 -27 30 -55 34 -67 159 -245 229 -325 94 -108 267 -269 289
-270 6 0 12 -4 12 -9 0 -5 16 -19 35 -31 20 -12 41 -27 48 -34 19 -18 124 -79
132 -77 4 1 12 -4 18 -13 7 -8 19 -16 27 -18 8 -2 23 -11 34 -20 11 -10 26
-18 33 -18 7 0 27 -8 45 -18 36 -20 192 -82 220 -87 10 -2 23 -7 28 -10 5 -3
18 -8 27 -10 10 -2 52 -12 94 -23 41 -11 111 -25 155 -32 43 -6 90 -14 104
-17 14 -3 441 -7 950 -8 971 -3 1008 -2 1160 41 70 20 230 94 230 106 0 5 3 7
8 5 10 -7 153 98 145 106 -3 4 1 7 9 7 28 0 218 224 218 258 0 6 4 12 8 14 18
7 105 214 96 229 -2 4 0 10 5 13 9 6 13 24 28 116 5 25 8 272 8 549 l0 504
-623 0 c-342 0 -624 -2 -627 -5 -3 -3 18 -13 47 -23 136 -44 252 -163 303
-312 20 -57 23 -85 21 -168 -3 -98 -6 -125 -16 -135 -3 -3 -11 -23 -19 -45
-18 -53 -64 -119 -119 -171 -41 -39 -140 -100 -179 -109 -10 -3 -36 -9 -58
-15 -40 -10 -1244 -15 -1315 -5 -80 11 -122 19 -174 33 -20 6 -36 8 -36 6 0
-3 -14 3 -30 11 -17 9 -35 13 -40 10 -6 -3 -10 -1 -10 4 0 6 -6 11 -12 11 -7
0 -56 21 -108 47 -52 25 -98 46 -102 45 -5 -1 -8 2 -8 7 0 5 -15 18 -32 28
-18 11 -58 40 -90 66 -31 25 -59 44 -62 41 -3 -2 -4 -2 -3 1 2 3 -26 37 -63
75 -37 39 -81 90 -96 113 -16 23 -32 44 -36 45 -5 2 -8 10 -8 18 0 9 -4 12
-10 9 -5 -3 -10 2 -10 13 0 10 -9 28 -20 40 -12 12 -18 22 -15 22 6 0 -24 59
-35 70 -3 3 -6 10 -7 15 -5 20 -47 130 -53 135 -3 3 -6 12 -7 20 -1 8 -4 26
-8 40 -3 14 -8 39 -11 55 -3 17 -8 37 -11 45 -3 8 -7 29 -9 45 -8 65 -10 850
-2 894 9 51 36 151 37 137 1 -5 13 14 29 42 15 28 36 61 47 74 11 13 32 38 48
56 15 19 27 31 27 27 0 -3 15 5 33 19 41 31 150 81 197 91 19 4 332 9 695 11
1343 9 1501 10 1528 17 37 10 127 59 127 69 0 4 5 8 11 8 15 0 69 61 69 78 0
6 4 12 8 12 5 0 15 12 21 28 36 76 39 112 40 427 l1 315 -23 0 c-159 2 -2269
5 -2274 3z"/>
<path d="M10540 5482 c-19 -37 -37 -69 -41 -72 -10 -8 -63 -114 -61 -122 1 -5
-3 -8 -8 -8 -6 0 -16 -12 -22 -27 -7 -16 -21 -41 -31 -56 -10 -15 -20 -34 -21
-42 -1 -8 -9 -22 -18 -32 -17 -20 -56 -93 -56 -107 0 -5 -5 -12 -10 -15 -6 -3
-25 -33 -42 -66 -18 -33 -39 -68 -47 -77 -8 -9 -12 -21 -9 -26 3 -6 -1 -12 -9
-16 -8 -3 -15 -10 -15 -15 0 -6 -20 -45 -45 -87 -25 -41 -45 -78 -45 -81 0 -3
-8 -17 -18 -31 -11 -15 -36 -58 -57 -97 -20 -38 -46 -85 -57 -102 -11 -18 -17
-33 -14 -33 3 0 -1 -8 -10 -17 -20 -22 -204 -349 -204 -363 0 -5 -5 -10 -12
-10 -6 0 -8 -3 -4 -7 9 -9 292 -12 304 -3 8 5 35 54 125 220 22 41 48 87 58
101 10 14 16 29 12 33 -3 3 -1 6 5 6 10 0 23 25 21 44 0 5 6 13 15 18 9 5 16
15 16 23 0 7 6 20 13 27 6 7 22 33 35 58 13 25 34 64 48 88 13 23 21 42 17 42
-4 0 -3 4 3 8 14 9 175 292 166 292 -4 0 -2 4 4 8 6 4 19 22 28 40 16 32 36
35 36 6 0 -8 5 -14 10 -14 6 0 10 -4 10 -9 0 -5 16 -38 36 -73 20 -34 50 -88
66 -118 17 -30 36 -58 42 -62 6 -4 7 -8 2 -8 -5 0 -4 -6 1 -12 6 -7 30 -49 53
-93 24 -44 46 -82 49 -85 3 -3 14 -21 23 -40 34 -68 126 -229 137 -240 4 -3 7
-9 8 -15 1 -5 29 -58 62 -117 34 -59 61 -112 61 -118 0 -5 3 -11 8 -11 21 -4
298 -5 304 -2 7 4 -9 40 -22 53 -3 3 -11 16 -17 30 -7 14 -25 48 -41 75 -51
88 -74 129 -110 195 -20 36 -40 67 -44 68 -4 2 -8 8 -8 14 0 5 -18 40 -39 76
-21 37 -40 72 -41 77 -1 6 -7 17 -14 25 -6 8 -22 35 -36 60 -13 25 -26 47 -29
50 -3 3 -19 31 -35 63 -16 31 -34 57 -39 57 -6 0 -7 3 -4 7 4 3 3 11 -2 17 -5
6 -24 38 -42 71 -18 33 -37 63 -43 67 -6 4 -8 8 -4 8 7 0 -48 98 -61 110 -4 3
-7 12 -9 20 -2 8 -16 35 -32 60 -15 25 -39 65 -52 90 -55 100 -71 125 -80 131
-5 3 -9 9 -8 13 2 11 -24 66 -32 66 -5 0 -8 7 -8 15 0 9 -7 18 -15 21 -8 4
-13 9 -11 13 3 4 2 12 -2 18 -4 7 -22 -16 -42 -55z"/>
<path d="M3930 4756 c0 -432 4 -787 8 -787 19 -3 248 -5 258 -2 7 3 10 148 9
461 -1 251 1 463 3 469 2 8 41 -24 91 -72 47 -47 209 -206 359 -354 150 -147
283 -277 295 -288 12 -11 29 -29 38 -39 9 -10 67 -68 128 -128 80 -79 111
-104 112 -90 1 25 1 1535 0 1552 -1 10 -32 12 -136 11 l-135 -1 0 -66 c-1 -37
-1 -248 -1 -469 0 -222 -3 -403 -7 -403 -4 0 -72 64 -152 142 -80 79 -148 142
-152 140 -5 -1 -8 2 -8 7 0 12 -63 76 -72 74 -5 -2 -8 1 -8 6 0 7 -149 157
-466 468 -67 65 -130 126 -142 137 l-21 18 -1 -786z"/>
<path d="M15606 5512 c-8 -16 -12 -32 -9 -36 4 -3 1 -6 -5 -6 -7 0 -19 -15
-27 -32 -14 -31 -28 -56 -77 -135 -11 -18 -16 -33 -11 -33 4 0 3 -4 -2 -8 -15
-10 -88 -134 -88 -149 0 -7 -3 -13 -7 -13 -4 0 -15 -17 -26 -37 -10 -21 -25
-44 -32 -51 -7 -8 -10 -18 -7 -23 4 -5 1 -9 -4 -9 -6 0 -11 -5 -11 -11 0 -6
-7 -17 -15 -26 -8 -8 -13 -19 -10 -24 4 -5 2 -9 -3 -9 -9 0 -29 -36 -30 -54 0
-5 -4 -12 -9 -15 -17 -12 -82 -138 -75 -146 4 -5 2 -5 -4 -2 -10 6 -33 -28
-30 -44 0 -4 -6 -15 -15 -25 -9 -11 -32 -48 -50 -84 -19 -36 -37 -67 -40 -70
-3 -3 -14 -21 -24 -40 -9 -19 -24 -43 -33 -52 -8 -10 -12 -18 -9 -18 3 0 -29
-60 -71 -133 -42 -73 -84 -146 -92 -162 -8 -17 -21 -36 -27 -43 -7 -7 -13 -20
-13 -28 0 -8 -5 -14 -11 -14 -5 0 -8 -4 -5 -8 3 -6 282 -9 306 -3 3 0 14 18
25 39 11 20 40 73 65 117 25 44 54 98 65 120 11 22 23 42 26 45 4 3 24 38 45
77 44 82 67 123 113 206 18 31 30 57 27 57 -3 0 3 9 14 20 11 11 20 26 20 34
0 8 3 16 8 18 4 2 17 23 30 48 39 76 57 105 65 108 4 2 7 9 7 15 0 7 10 28 22
47 12 19 22 37 23 40 0 3 7 15 15 27 11 16 17 19 27 11 7 -6 13 -14 13 -18 0
-5 24 -50 54 -102 29 -51 64 -113 78 -138 14 -25 34 -61 45 -80 11 -19 46 -82
78 -140 32 -58 63 -108 69 -112 6 -4 7 -8 3 -8 -10 0 31 -71 47 -82 6 -4 8 -8
3 -8 -4 0 4 -18 18 -40 14 -22 25 -44 25 -49 0 -5 6 -16 13 -23 6 -8 19 -27
28 -43 36 -70 64 -120 70 -125 3 -3 11 -19 17 -35 l12 -30 155 0 c85 0 155 1
155 3 0 4 -46 85 -112 200 -12 20 -30 53 -40 72 -10 19 -22 42 -27 50 -14 22
-75 129 -103 180 -75 135 -112 196 -122 202 -6 4 -7 8 -2 8 4 0 0 12 -10 27
-9 15 -33 57 -52 93 -19 36 -43 77 -54 92 -10 14 -18 31 -18 36 0 6 -6 17 -12
24 -7 8 -21 29 -32 48 -10 19 -37 68 -60 108 -22 40 -48 86 -56 101 -63 115
-184 322 -191 327 -4 2 -15 -8 -23 -24z"/>
<path d="M2766 5510 c-88 -16 -226 -66 -226 -82 0 -4 -3 -7 -7 -6 -14 4 -85
-35 -90 -49 -3 -7 -9 -11 -13 -8 -12 7 -182 -164 -175 -176 4 -5 2 -9 -4 -9
-25 0 -122 -213 -138 -303 -12 -69 -10 -244 4 -309 25 -124 128 -326 181 -357
9 -6 13 -11 8 -11 -5 0 -3 -7 4 -15 7 -8 16 -12 21 -9 5 3 8 1 7 -3 -4 -14 84
-88 150 -125 95 -55 158 -81 224 -94 13 -2 34 -7 48 -10 35 -10 225 -10 285
-1 27 4 72 14 100 22 61 18 195 85 195 97 0 5 5 6 10 3 6 -3 10 -2 10 4 0 5 8
12 18 15 23 8 117 97 164 156 45 56 121 198 113 211 -4 5 -2 9 3 9 5 0 17 30
27 68 24 89 28 267 10 352 -15 69 -44 155 -60 180 -5 8 -10 18 -10 22 0 12
-79 128 -87 128 -4 0 -8 6 -8 12 0 18 -108 118 -171 160 -142 94 -252 128
-424 133 -66 2 -142 0 -169 -5z m277 -278 c44 -12 149 -62 159 -77 4 -5 8 -7
8 -4 0 3 26 -19 58 -50 32 -31 57 -59 55 -63 -2 -3 2 -13 9 -20 30 -32 71
-131 82 -199 23 -136 -18 -316 -90 -400 -8 -9 -12 -19 -9 -22 3 -4 2 -5 -1 -3
-3 2 -23 -15 -44 -37 -44 -49 -124 -99 -201 -128 -82 -31 -271 -30 -329 1 -11
6 -25 8 -30 5 -6 -3 -10 -2 -10 3 0 8 -54 38 -56 30 0 -1 -8 4 -16 12 -9 8
-39 33 -67 55 -27 22 -50 45 -51 51 0 6 -7 17 -16 25 -22 18 -74 124 -90 181
-19 73 -15 212 7 286 27 85 78 169 137 224 28 26 47 50 43 54 -3 4 -1 4 6 0 6
-3 21 4 32 16 12 12 21 19 21 15 0 -4 23 4 50 18 28 14 50 22 50 19 0 -4 7 -1
15 6 8 7 15 10 15 7 0 -3 12 -2 28 3 34 10 185 5 235 -8z"/>
<path d="M6105 5508 c-22 -5 -47 -12 -55 -15 -8 -3 -24 -7 -35 -8 -35 -5 -179
-77 -198 -99 -10 -11 -15 -14 -11 -6 20 37 -131 -99 -176 -159 -14 -18 -31
-39 -38 -47 -21 -22 -92 -167 -92 -186 0 -10 -4 -18 -9 -18 -6 0 -10 -8 -10
-17 0 -10 -4 -36 -11 -58 -27 -100 -16 -312 23 -420 22 -60 60 -140 69 -143 4
-2 8 -10 8 -18 0 -8 5 -14 10 -14 6 0 10 -6 10 -12 0 -7 12 -26 26 -43 14 -16
33 -39 43 -50 27 -33 137 -125 149 -125 7 0 12 -4 12 -8 0 -16 184 -97 245
-108 11 -2 36 -7 55 -11 46 -10 251 -10 315 0 72 12 168 37 179 48 6 5 18 9
28 9 10 0 18 5 18 12 0 6 3 9 6 5 6 -6 95 40 105 55 3 6 8 8 10 6 4 -3 70 44
107 77 l22 21 -2 289 -3 290 -335 0 -335 0 0 -115 0 -115 198 -1 c109 -1 200
-4 204 -7 3 -3 6 -53 7 -111 l1 -105 -75 -38 c-41 -21 -78 -39 -82 -39 -5 -1
-9 -2 -10 -3 -2 -2 -14 -4 -28 -6 -14 -2 -50 -7 -80 -12 -98 -15 -229 -4 -283
24 -16 8 -31 12 -34 9 -3 -2 -10 -1 -17 5 -6 5 -39 29 -73 54 -93 67 -160 158
-199 272 -23 66 -27 204 -8 278 8 33 16 67 17 75 1 8 8 21 15 28 6 7 12 20 12
28 0 8 4 14 9 14 5 0 12 8 15 18 3 9 18 31 32 47 14 17 31 37 38 46 20 28 113
89 173 113 128 52 277 49 416 -9 21 -8 39 -15 42 -15 3 0 11 -4 18 -10 6 -6
35 -25 62 -43 28 -17 56 -37 64 -45 7 -7 15 -12 16 -10 6 7 58 99 107 192 17
33 9 56 -19 56 -8 0 -11 5 -8 10 3 6 1 10 -5 10 -6 0 -20 9 -32 20 -12 11 -28
20 -35 20 -7 0 -13 5 -13 10 0 6 -7 10 -15 10 -8 0 -15 5 -15 10 0 6 -6 10
-12 10 -7 0 -26 7 -43 16 -35 18 -101 43 -130 49 -11 2 -37 8 -57 13 -47 12
-250 12 -303 0z"/>
<path d="M8192 5505 c-96 -21 -227 -74 -244 -99 -4 -6 -8 -7 -8 -3 0 21 -200
-151 -200 -173 0 -5 -4 -10 -9 -10 -5 0 -20 -17 -32 -37 -13 -21 -25 -40 -29
-43 -25 -23 -86 -177 -106 -269 -11 -54 -11 -218 0 -281 37 -193 143 -373 284
-477 20 -16 39 -30 42 -34 13 -14 129 -79 143 -79 9 0 18 -4 21 -9 5 -8 78
-31 151 -47 41 -9 258 -10 320 -2 52 8 64 10 130 28 22 6 50 14 63 17 12 3 22
10 22 16 0 6 3 8 6 4 8 -8 131 59 179 98 95 78 85 35 85 361 l0 289 -337 0
-338 0 0 -117 0 -116 198 0 c109 0 200 -2 203 -5 3 -3 6 -52 6 -108 0 -89 -2
-104 -18 -117 -28 -21 -137 -70 -170 -77 -180 -33 -295 -24 -409 30 -70 34
-189 127 -178 139 4 3 2 6 -3 6 -6 0 -23 22 -39 50 -17 27 -33 50 -37 50 -4 0
-5 7 -2 15 4 8 2 15 -3 15 -5 0 -10 6 -11 13 0 6 -8 40 -17 74 -19 79 -14 208
12 284 41 119 146 250 237 293 20 9 36 21 36 27 0 6 3 8 8 5 4 -2 32 4 62 14
69 24 202 26 285 5 69 -18 178 -72 247 -122 l47 -34 38 72 c21 40 48 91 60
113 l22 41 -22 18 c-12 10 -32 27 -44 37 -12 10 -24 16 -27 13 -3 -4 -6 -1 -6
6 0 7 -4 10 -9 7 -5 -3 -11 1 -15 9 -3 8 -12 15 -21 15 -8 0 -15 5 -15 10 0 6
-6 10 -14 10 -7 0 -34 11 -60 25 -25 13 -50 25 -54 25 -4 0 -25 6 -47 12 -62
17 -72 18 -200 22 -77 3 -142 -1 -183 -9z"/>
<path d="M720 5373 c-2 -628 0 -1395 4 -1402 5 -8 518 -7 532 2 5 3 29 8 53
12 60 9 183 52 192 67 5 7 9 9 9 5 0 -13 109 51 165 96 58 47 99 87 89 87 -4
0 5 9 20 21 14 11 26 27 26 35 0 8 3 14 8 14 12 0 59 91 86 166 28 79 39 154
39 269 0 81 -29 235 -44 235 -5 0 -6 6 -4 13 5 13 -55 126 -95 178 -35 47 -89
100 -135 134 -22 17 -42 33 -45 36 -8 10 -75 43 -82 41 -5 -1 -8 3 -8 9 0 5
-4 8 -9 5 -5 -4 -11 -1 -13 4 -2 6 -10 12 -18 14 -8 2 -27 8 -41 14 -111 45
-228 60 -501 61 l-228 2 0 -118z m548 -157 c324 -88 478 -413 336 -711 -89
-189 -282 -292 -539 -290 l-60 0 -2 500 c-2 275 -1 506 2 514 7 17 183 9 263
-13z"/>
<path d="M9262 4728 l3 -763 125 -1 c69 0 130 2 137 4 9 3 12 183 12 762 l0
758 -140 1 -139 2 2 -763z"/>
<path d="M12070 4728 l0 -763 140 0 140 0 1 25 c0 14 1 141 2 282 l0 257 216
4 c119 2 227 6 240 10 252 69 394 250 385 489 -9 215 -162 390 -388 443 -44
10 -146 14 -398 15 l-338 0 0 -762z m667 497 c71 -21 147 -93 160 -150 22 -95
7 -157 -53 -224 -62 -69 -111 -82 -301 -83 -81 0 -157 0 -169 1 -20 1 -20 5
-19 224 1 122 3 228 4 235 2 18 316 16 378 -3z"/>
<path d="M13399 5482 c-5 -22 -4 -1512 1 -1513 19 -5 270 -4 271 0 0 4 1 144
2 313 1 168 5 309 9 313 9 9 647 9 656 0 4 -3 7 -142 8 -308 1 -166 2 -307 3
-312 1 -7 51 -10 139 -10 l137 0 0 763 0 762 -140 -3 -140 -2 -1 -305 c-1
-168 -2 -311 -3 -317 -1 -10 -75 -13 -334 -13 l-333 0 -1 293 c-1 160 -2 304
-2 319 l-1 27 -135 0 c-74 0 -136 -3 -136 -7z"/>
<path d="M16336 5371 c0 -64 3 -121 6 -127 4 -5 106 -9 250 -8 l243 1 0 -633
c-1 -429 3 -635 10 -637 5 -2 69 -3 140 -3 l130 1 0 636 0 635 235 -1 c129 0
241 1 248 3 9 3 12 37 12 128 l0 123 -637 0 -638 0 1 -118z"/>
</g>
</svg>
